<svg width="512" height="512" viewBox="0 0 512 512" fill="none" xmlns="http://www.w3.org/2000/svg">
<path d="M475 301.569C475 397.782 378.917 479 256 479C133.083 479 37 397.782 37 301.569C37 205.356 133.083 124.138 256 124.138C378.917 124.138 475 205.356 475 301.569Z" fill="#FFEFD5" stroke="#696969" stroke-width="20"/>
<path d="M249 40V115" stroke="#696969" stroke-width="20"/>
<path d="M99 90C215.897 -0.554828 347.707 52.2688 399 90" stroke="#696969" stroke-width="20"/>
<path d="M80.6514 308.084C120.423 257.794 165.269 287.13 182.72 308.084" stroke="#696969" stroke-width="13"/>
<path d="M329.28 308.084C369.052 257.794 413.897 287.13 431.349 308.084" stroke="#696969" stroke-width="13"/>
<path d="M306.269 379.898C306.269 382.778 305.15 386.842 302.578 391.56C300.052 396.196 296.326 401.084 291.65 405.536C282.239 414.497 269.58 421.154 256 421.154C242.42 421.154 229.761 414.497 220.35 405.536C215.674 401.084 211.948 396.196 209.422 391.56C206.85 386.842 205.731 382.778 205.731 379.898C205.731 377.37 206.581 375.609 208.229 374.083C210.08 372.37 213.161 370.781 217.798 369.51C227.114 366.957 240.439 366.259 256 366.259C271.561 366.259 284.886 366.957 294.202 369.51C298.839 370.781 301.92 372.37 303.771 374.083C305.419 375.609 306.269 377.37 306.269 379.898Z" fill="#FFEFD5" stroke="#696969" stroke-width="12"/>
</svg>
