<svg width="595" height="595" viewBox="0 0 595 595" fill="none" xmlns="http://www.w3.org/2000/svg">
<g filter="url(#filter0_b)">
<path d="M9.39282e-06 120.186C-0.0259303 53.9114 53.6789 0.164505 119.953 0.138565L473.953 9.39282e-06C540.227 -0.0259303 593.974 53.6789 594 119.953L594.139 473.953C594.164 540.227 540.46 593.974 474.186 594L120.186 594.139C53.9114 594.164 0.164505 540.46 0.138565 474.186L9.39282e-06 120.186Z" fill="url(#paint0_linear)"/>
</g>
<g filter="url(#filter1_i)">
<path d="M246.5 246.33H152.64V260.24H183.06V304.31H199.44V260.24H230.64V279.22C230.64 280.78 229.99 281.17 227.78 281.17C225.83 281.17 217.77 281.3 211.4 281.04C213.61 285.07 216.08 291.44 216.86 295.99C226.61 295.99 233.89 295.73 239.48 293.52C244.94 291.05 246.5 286.76 246.5 279.61V246.33ZM179.03 221.11C187.74 213.44 195.15 205.51 200.48 198.1C205.94 205.38 213.87 213.44 222.71 221.11H179.03ZM191.9 182.89C182.15 198.62 161.09 218.77 139.12 230.21C142.76 233.46 147.05 239.18 149.13 242.69C157.84 237.62 166.29 231.77 173.96 225.4V235.02H228.04V225.53C236.1 232.03 244.68 237.88 252.87 242.56C255.86 237.88 259.37 232.81 263.27 228.78C242.99 219.81 221.67 202.39 207.63 182.89H191.9ZM362.85 235.8H381.7V221.5H362.85V201.61C369.74 200.05 376.5 198.23 382.22 196.15L372.21 184.06C360.38 188.74 341.4 192.9 324.5 195.24C326.19 198.62 328.01 203.82 328.66 207.33C334.64 206.55 340.88 205.64 347.25 204.6V221.5H324.11V235.8H343.48C338.41 250.1 330.09 265.05 321.25 274.41C323.85 278.31 327.62 284.42 329.05 288.97C335.94 281.3 342.05 270.12 347.25 257.9V304.18H362.85V256.21C367.14 262.32 371.3 268.82 373.77 273.24L382.61 260.37C379.75 256.86 368.05 243.21 362.85 238.01V235.8ZM400.29 272.98V209.93H421.09V272.98H400.29ZM385.08 195.11V298.07H400.29V287.8H421.09V297.16H437.08V195.11H385.08ZM200.35 494.69C219.46 494.69 235.58 484.29 235.58 467.39C235.58 454.39 227.39 445.81 216.47 443.08V442.56C227.13 439.18 233.11 431.12 233.11 420.07C233.11 404.99 220.11 394.85 199.44 394.85C186.18 394.85 173.83 400.57 163.82 410.06L173.83 421.76C181.76 413.57 190.34 410.06 198.79 410.06C209.58 410.06 215.17 415.13 215.17 422.02C215.17 430.21 207.11 436.84 186.83 436.84V450.49C210.1 450.49 217.38 456.47 217.38 465.83C217.38 473.89 209.84 479.09 199.18 479.09C188.78 479.09 178.38 473.89 171.23 465.96L161.87 477.92C169.54 486.89 182.02 494.69 200.35 494.69ZM359.6 461.8V442.04H382.09V461.8H359.6ZM442.54 461.8H398.08V442.04H432.4V427.61H398.08V412.14H435.39V397.19H361.94C363.63 393.68 365.06 390.17 366.23 386.53L350.5 382.5C344.91 399.27 334.9 415.91 323.2 425.79C326.97 428 333.6 433.2 336.59 435.8C342.7 429.69 348.94 421.37 354.27 412.14H382.09V427.61H344.13V461.8H323.59V476.62H382.09V504.44H398.08V476.62H442.54V461.8Z" fill="black" fill-opacity="0.67"/>
</g>
<path d="M246.5 246.33H247.5V245.33H246.5V246.33ZM152.64 246.33V245.33H151.64V246.33H152.64ZM152.64 260.24H151.64V261.24H152.64V260.24ZM183.06 260.24H184.06V259.24H183.06V260.24ZM183.06 304.31H182.06V305.31H183.06V304.31ZM199.44 304.31V305.31H200.44V304.31H199.44ZM199.44 260.24V259.24H198.44V260.24H199.44ZM230.64 260.24H231.64V259.24H230.64V260.24ZM211.4 281.04L211.441 280.041L209.672 279.969L210.523 281.521L211.4 281.04ZM216.86 295.99L215.874 296.159L216.017 296.99H216.86V295.99ZM239.48 293.52L239.848 294.45L239.87 294.441L239.892 294.431L239.48 293.52ZM179.03 221.11L178.369 220.36L176.381 222.11H179.03V221.11ZM200.48 198.1L201.28 197.5L200.463 196.411L199.668 197.516L200.48 198.1ZM222.71 221.11V222.11H225.388L223.365 220.355L222.71 221.11ZM191.9 182.89V181.89H191.343L191.05 182.363L191.9 182.89ZM139.12 230.21L138.658 229.323L137.374 229.992L138.454 230.956L139.12 230.21ZM149.13 242.69L148.27 243.2L148.776 244.053L149.633 243.554L149.13 242.69ZM173.96 225.4H174.96V223.27L173.321 224.631L173.96 225.4ZM173.96 235.02H172.96V236.02H173.96V235.02ZM228.04 235.02V236.02H229.04V235.02H228.04ZM228.04 225.53L228.668 224.752L227.04 223.439V225.53H228.04ZM252.87 242.56L252.374 243.428L253.2 243.9L253.713 243.098L252.87 242.56ZM263.27 228.78L263.989 229.475L264.985 228.445L263.675 227.865L263.27 228.78ZM207.63 182.89L208.442 182.306L208.142 181.89H207.63V182.89ZM246.5 245.33H152.64V247.33H246.5V245.33ZM151.64 246.33V260.24H153.64V246.33H151.64ZM152.64 261.24H183.06V259.24H152.64V261.24ZM182.06 260.24V304.31H184.06V260.24H182.06ZM183.06 305.31H199.44V303.31H183.06V305.31ZM200.44 304.31V260.24H198.44V304.31H200.44ZM199.44 261.24H230.64V259.24H199.44V261.24ZM229.64 260.24V279.22H231.64V260.24H229.64ZM229.64 279.22C229.64 279.894 229.497 279.939 229.484 279.948C229.428 279.986 229.293 280.049 228.997 280.098C228.704 280.146 228.311 280.17 227.78 280.17V282.17C228.354 282.17 228.871 282.145 229.321 282.072C229.769 281.998 230.211 281.867 230.593 281.612C231.458 281.036 231.64 280.106 231.64 279.22H229.64ZM227.78 280.17C225.803 280.17 217.784 280.3 211.441 280.041L211.359 282.039C217.756 282.3 225.857 282.17 227.78 282.17V280.17ZM210.523 281.521C212.694 285.479 215.117 291.744 215.874 296.159L217.846 295.821C217.043 291.136 214.526 284.661 212.277 280.559L210.523 281.521ZM216.86 296.99C226.571 296.99 234.049 296.742 239.848 294.45L239.112 292.59C233.731 294.718 226.649 294.99 216.86 294.99V296.99ZM239.892 294.431C242.809 293.111 244.755 291.264 245.942 288.746C247.108 286.273 247.5 283.237 247.5 279.61H245.5C245.5 283.133 245.112 285.817 244.133 287.894C243.175 289.926 241.611 291.459 239.068 292.609L239.892 294.431ZM247.5 279.61V246.33H245.5V279.61H247.5ZM179.691 221.86C188.442 214.154 195.907 206.17 201.292 198.684L199.668 197.516C194.393 204.85 187.038 212.726 178.369 220.36L179.691 221.86ZM199.68 198.7C205.198 206.057 213.184 214.169 222.055 221.865L223.365 220.355C214.556 212.711 206.682 204.703 201.28 197.5L199.68 198.7ZM222.71 220.11H179.03V222.11H222.71V220.11ZM191.05 182.363C181.4 197.932 160.478 217.961 138.658 229.323L139.582 231.097C161.702 219.579 182.9 199.308 192.75 183.417L191.05 182.363ZM138.454 230.956C141.997 234.119 146.225 239.75 148.27 243.2L149.99 242.18C147.875 238.61 143.523 232.801 139.786 229.464L138.454 230.956ZM149.633 243.554C158.388 238.458 166.884 232.577 174.599 226.169L173.321 224.631C165.696 230.963 157.292 236.782 148.627 241.826L149.633 243.554ZM172.96 225.4V235.02H174.96V225.4H172.96ZM173.96 236.02H228.04V234.02H173.96V236.02ZM229.04 235.02V225.53H227.04V235.02H229.04ZM227.412 226.308C235.512 232.84 244.136 238.721 252.374 243.428L253.366 241.692C245.224 237.039 236.688 231.22 228.668 224.752L227.412 226.308ZM253.713 243.098C256.694 238.431 260.161 233.431 263.989 229.475L262.551 228.085C258.579 232.189 255.026 237.329 252.027 242.022L253.713 243.098ZM263.675 227.865C243.566 218.971 222.383 201.669 208.442 182.306L206.818 183.474C220.957 203.111 242.414 220.649 262.865 229.695L263.675 227.865ZM207.63 181.89H191.9V183.89H207.63V181.89ZM362.85 235.8V234.8H361.85V235.8H362.85ZM381.7 235.8V236.8H382.7V235.8H381.7ZM381.7 221.5H382.7V220.5H381.7V221.5ZM362.85 221.5H361.85V222.5H362.85V221.5ZM362.85 201.61L362.629 200.635L361.85 200.811V201.61H362.85ZM382.22 196.15L382.562 197.09L383.895 196.605L382.99 195.512L382.22 196.15ZM372.21 184.06L372.98 183.422L372.517 182.863L371.842 183.13L372.21 184.06ZM324.5 195.24L324.363 194.249L322.982 194.441L323.606 195.687L324.5 195.24ZM328.66 207.33L327.677 207.512L327.849 208.444L328.789 208.322L328.66 207.33ZM347.25 204.6H348.25V203.423L347.089 203.613L347.25 204.6ZM347.25 221.5V222.5H348.25V221.5H347.25ZM324.11 221.5V220.5H323.11V221.5H324.11ZM324.11 235.8H323.11V236.8H324.11V235.8ZM343.48 235.8L344.423 236.134L344.896 234.8H343.48V235.8ZM321.25 274.41L320.523 273.723L319.976 274.302L320.418 274.965L321.25 274.41ZM329.05 288.97L328.096 289.27L328.622 290.943L329.794 289.638L329.05 288.97ZM347.25 257.9H348.25L346.33 257.508L347.25 257.9ZM347.25 304.18H346.25V305.18H347.25V304.18ZM362.85 304.18V305.18H363.85V304.18H362.85ZM362.85 256.21L363.668 255.635L361.85 253.046V256.21H362.85ZM373.77 273.24L372.897 273.728L373.683 275.134L374.594 273.806L373.77 273.24ZM382.61 260.37L383.434 260.936L383.858 260.319L383.385 259.738L382.61 260.37ZM362.85 238.01H361.85V238.424L362.143 238.717L362.85 238.01ZM400.29 272.98H399.29V273.98H400.29V272.98ZM400.29 209.93V208.93H399.29V209.93H400.29ZM421.09 209.93H422.09V208.93H421.09V209.93ZM421.09 272.98V273.98H422.09V272.98H421.09ZM385.08 195.11V194.11H384.08V195.11H385.08ZM385.08 298.07H384.08V299.07H385.08V298.07ZM400.29 298.07V299.07H401.29V298.07H400.29ZM400.29 287.8V286.8H399.29V287.8H400.29ZM421.09 287.8H422.09V286.8H421.09V287.8ZM421.09 297.16H420.09V298.16H421.09V297.16ZM437.08 297.16V298.16H438.08V297.16H437.08ZM437.08 195.11H438.08V194.11H437.08V195.11ZM362.85 236.8H381.7V234.8H362.85V236.8ZM382.7 235.8V221.5H380.7V235.8H382.7ZM381.7 220.5H362.85V222.5H381.7V220.5ZM363.85 221.5V201.61H361.85V221.5H363.85ZM363.071 202.585C369.982 201.021 376.787 199.19 382.562 197.09L381.878 195.21C376.213 197.27 369.498 199.079 362.629 200.635L363.071 202.585ZM382.99 195.512L372.98 183.422L371.44 184.698L381.45 196.788L382.99 195.512ZM371.842 183.13C360.12 187.767 341.23 191.914 324.363 194.249L324.637 196.231C341.57 193.886 360.64 189.713 372.578 184.99L371.842 183.13ZM323.606 195.687C325.26 198.995 327.046 204.106 327.677 207.512L329.643 207.148C328.974 203.534 327.12 198.245 325.394 194.793L323.606 195.687ZM328.789 208.322C334.78 207.54 341.03 206.629 347.411 205.587L347.089 203.613C340.73 204.651 334.5 205.56 328.531 206.338L328.789 208.322ZM346.25 204.6V221.5H348.25V204.6H346.25ZM347.25 220.5H324.11V222.5H347.25V220.5ZM323.11 221.5V235.8H325.11V221.5H323.11ZM324.11 236.8H343.48V234.8H324.11V236.8ZM342.537 235.466C337.499 249.677 329.241 264.493 320.523 273.723L321.977 275.097C330.939 265.607 339.321 250.523 344.423 236.134L342.537 235.466ZM320.418 274.965C323.024 278.874 326.714 284.874 328.096 289.27L330.004 288.67C328.526 283.966 324.676 277.746 322.082 273.855L320.418 274.965ZM329.794 289.638C336.793 281.847 342.954 270.549 348.17 258.292L346.33 257.508C341.146 269.691 335.087 280.753 328.306 288.302L329.794 289.638ZM346.25 257.9V304.18H348.25V257.9H346.25ZM347.25 305.18H362.85V303.18H347.25V305.18ZM363.85 304.18V256.21H361.85V304.18H363.85ZM362.032 256.785C366.31 262.877 370.449 269.347 372.897 273.728L374.643 272.752C372.151 268.293 367.97 261.763 363.668 255.635L362.032 256.785ZM374.594 273.806L383.434 260.936L381.786 259.804L372.946 272.674L374.594 273.806ZM383.385 259.738C380.52 256.222 368.794 242.54 363.557 237.303L362.143 238.717C367.306 243.88 378.98 257.498 381.835 261.002L383.385 259.738ZM363.85 238.01V235.8H361.85V238.01H363.85ZM401.29 272.98V209.93H399.29V272.98H401.29ZM400.29 210.93H421.09V208.93H400.29V210.93ZM420.09 209.93V272.98H422.09V209.93H420.09ZM421.09 271.98H400.29V273.98H421.09V271.98ZM384.08 195.11V298.07H386.08V195.11H384.08ZM385.08 299.07H400.29V297.07H385.08V299.07ZM401.29 298.07V287.8H399.29V298.07H401.29ZM400.29 288.8H421.09V286.8H400.29V288.8ZM420.09 287.8V297.16H422.09V287.8H420.09ZM421.09 298.16H437.08V296.16H421.09V298.16ZM438.08 297.16V195.11H436.08V297.16H438.08ZM437.08 194.11H385.08V196.11H437.08V194.11ZM216.47 443.08H215.47V443.861L216.227 444.05L216.47 443.08ZM216.47 442.56L216.168 441.607L215.47 441.828V442.56H216.47ZM163.82 410.06L163.132 409.334L162.442 409.988L163.06 410.71L163.82 410.06ZM173.83 421.76L173.07 422.41L173.784 423.245L174.548 422.456L173.83 421.76ZM186.83 436.84V435.84H185.83V436.84H186.83ZM186.83 450.49H185.83V451.49H186.83V450.49ZM171.23 465.96L171.973 465.29L171.176 464.407L170.442 465.344L171.23 465.96ZM161.87 477.92L161.082 477.304L160.578 477.948L161.11 478.57L161.87 477.92ZM200.35 495.69C210.074 495.69 219.101 493.046 225.723 488.184C232.366 483.307 236.58 476.197 236.58 467.39H234.58C234.58 475.483 230.734 482.023 224.539 486.571C218.324 491.134 209.736 493.69 200.35 493.69V495.69ZM236.58 467.39C236.58 453.882 228.028 444.939 216.713 442.11L216.227 444.05C226.752 446.681 234.58 454.898 234.58 467.39H236.58ZM217.47 443.08V442.56H215.47V443.08H217.47ZM216.772 443.513C222.272 441.769 226.621 438.798 229.591 434.786C232.562 430.773 234.11 425.78 234.11 420.07H232.11C232.11 425.41 230.668 429.972 227.984 433.596C225.299 437.222 221.328 439.971 216.168 441.607L216.772 443.513ZM234.11 420.07C234.11 412.211 230.709 405.613 224.63 401.008C218.576 396.421 209.927 393.85 199.44 393.85V395.85C209.623 395.85 217.809 398.349 223.422 402.602C229.011 406.837 232.11 412.849 232.11 420.07H234.11ZM199.44 393.85C185.88 393.85 173.293 399.701 163.132 409.334L164.508 410.786C174.367 401.439 186.48 395.85 199.44 395.85V393.85ZM163.06 410.71L173.07 422.41L174.59 421.11L164.58 409.41L163.06 410.71ZM174.548 422.456C182.316 414.433 190.646 411.06 198.79 411.06V409.06C190.034 409.06 181.204 412.707 173.112 421.064L174.548 422.456ZM198.79 411.06C204.041 411.06 207.896 412.295 210.414 414.247C212.906 416.178 214.17 418.871 214.17 422.02H216.17C216.17 418.279 214.639 414.992 211.639 412.666C208.664 410.36 204.329 409.06 198.79 409.06V411.06ZM214.17 422.02C214.17 425.724 212.376 429.118 208.097 431.64C203.766 434.192 196.886 435.84 186.83 435.84V437.84C197.054 437.84 204.344 436.173 209.113 433.363C213.934 430.522 216.17 426.506 216.17 422.02H214.17ZM185.83 436.84V450.49H187.83V436.84H185.83ZM186.83 451.49C198.419 451.49 205.842 452.986 210.34 455.521C212.569 456.777 214.062 458.278 215.005 459.971C215.951 461.668 216.38 463.621 216.38 465.83H218.38C218.38 463.359 217.899 461.054 216.752 458.998C215.604 456.937 213.823 455.188 211.322 453.779C206.363 450.984 198.511 449.49 186.83 449.49V451.49ZM216.38 465.83C216.38 469.508 214.675 472.532 211.695 474.67C208.69 476.825 204.36 478.09 199.18 478.09V480.09C204.66 480.09 209.43 478.755 212.86 476.295C216.315 473.818 218.38 470.212 218.38 465.83H216.38ZM199.18 478.09C189.102 478.09 178.961 473.041 171.973 465.29L170.487 466.63C177.799 474.739 188.458 480.09 199.18 480.09V478.09ZM170.442 465.344L161.082 477.304L162.658 478.536L172.018 466.576L170.442 465.344ZM161.11 478.57C168.953 487.742 181.702 495.69 200.35 495.69V493.69C182.338 493.69 170.127 486.038 162.63 477.27L161.11 478.57ZM359.6 461.8H358.6V462.8H359.6V461.8ZM359.6 442.04V441.04H358.6V442.04H359.6ZM382.09 442.04H383.09V441.04H382.09V442.04ZM382.09 461.8V462.8H383.09V461.8H382.09ZM442.54 461.8H443.54V460.8H442.54V461.8ZM398.08 461.8H397.08V462.8H398.08V461.8ZM398.08 442.04V441.04H397.08V442.04H398.08ZM432.4 442.04V443.04H433.4V442.04H432.4ZM432.4 427.61H433.4V426.61H432.4V427.61ZM398.08 427.61H397.08V428.61H398.08V427.61ZM398.08 412.14V411.14H397.08V412.14H398.08ZM435.39 412.14V413.14H436.39V412.14H435.39ZM435.39 397.19H436.39V396.19H435.39V397.19ZM361.94 397.19L361.039 396.756L360.349 398.19H361.94V397.19ZM366.23 386.53L367.182 386.836L367.507 385.825L366.478 385.561L366.23 386.53ZM350.5 382.5L350.748 381.531L349.846 381.3L349.551 382.184L350.5 382.5ZM323.2 425.79L322.555 425.026L321.475 425.938L322.694 426.653L323.2 425.79ZM336.59 435.8L335.934 436.555L336.638 437.167L337.297 436.507L336.59 435.8ZM354.27 412.14V411.14H353.693L353.404 411.64L354.27 412.14ZM382.09 412.14H383.09V411.14H382.09V412.14ZM382.09 427.61V428.61H383.09V427.61H382.09ZM344.13 427.61V426.61H343.13V427.61H344.13ZM344.13 461.8V462.8H345.13V461.8H344.13ZM323.59 461.8V460.8H322.59V461.8H323.59ZM323.59 476.62H322.59V477.62H323.59V476.62ZM382.09 476.62H383.09V475.62H382.09V476.62ZM382.09 504.44H381.09V505.44H382.09V504.44ZM398.08 504.44V505.44H399.08V504.44H398.08ZM398.08 476.62V475.62H397.08V476.62H398.08ZM442.54 476.62V477.62H443.54V476.62H442.54ZM360.6 461.8V442.04H358.6V461.8H360.6ZM359.6 443.04H382.09V441.04H359.6V443.04ZM381.09 442.04V461.8H383.09V442.04H381.09ZM382.09 460.8H359.6V462.8H382.09V460.8ZM442.54 460.8H398.08V462.8H442.54V460.8ZM399.08 461.8V442.04H397.08V461.8H399.08ZM398.08 443.04H432.4V441.04H398.08V443.04ZM433.4 442.04V427.61H431.4V442.04H433.4ZM432.4 426.61H398.08V428.61H432.4V426.61ZM399.08 427.61V412.14H397.08V427.61H399.08ZM398.08 413.14H435.39V411.14H398.08V413.14ZM436.39 412.14V397.19H434.39V412.14H436.39ZM435.39 396.19H361.94V398.19H435.39V396.19ZM362.841 397.624C364.549 394.077 365.996 390.524 367.182 386.836L365.278 386.224C364.124 389.816 362.711 393.283 361.039 396.756L362.841 397.624ZM366.478 385.561L350.748 381.531L350.252 383.469L365.982 387.499L366.478 385.561ZM349.551 382.184C344.001 398.834 334.076 415.297 322.555 425.026L323.845 426.554C335.724 416.523 345.819 399.706 351.449 382.816L349.551 382.184ZM322.694 426.653C326.384 428.816 332.96 433.968 335.934 436.555L337.246 435.045C334.24 432.432 327.556 427.184 323.706 424.927L322.694 426.653ZM337.297 436.507C343.48 430.324 349.771 421.931 355.136 412.64L353.404 411.64C348.109 420.809 341.92 429.056 335.883 435.093L337.297 436.507ZM354.27 413.14H382.09V411.14H354.27V413.14ZM381.09 412.14V427.61H383.09V412.14H381.09ZM382.09 426.61H344.13V428.61H382.09V426.61ZM343.13 427.61V461.8H345.13V427.61H343.13ZM344.13 460.8H323.59V462.8H344.13V460.8ZM322.59 461.8V476.62H324.59V461.8H322.59ZM323.59 477.62H382.09V475.62H323.59V477.62ZM381.09 476.62V504.44H383.09V476.62H381.09ZM382.09 505.44H398.08V503.44H382.09V505.44ZM399.08 504.44V476.62H397.08V504.44H399.08ZM398.08 477.62H442.54V475.62H398.08V477.62ZM443.54 476.62V461.8H441.54V476.62H443.54Z" fill="black" fill-opacity="0.67"/>
<path d="M202.955 103H153.346V92.2578L176.197 68.2344C181.829 61.8216 184.645 56.7272 184.645 52.9512C184.645 49.8913 183.977 47.5638 182.643 45.9688C181.308 44.3737 179.371 43.5762 176.832 43.5762C174.326 43.5762 172.291 44.6504 170.729 46.7988C169.166 48.9147 168.385 51.5677 168.385 54.7578H151.881C151.881 50.3958 152.971 46.3757 155.152 42.6973C157.333 38.9863 160.361 36.0892 164.234 34.0059C168.108 31.9225 172.438 30.8809 177.223 30.8809C184.905 30.8809 190.813 32.6549 194.947 36.2031C199.114 39.7513 201.197 44.8457 201.197 51.4863C201.197 54.2858 200.676 57.0202 199.635 59.6895C198.593 62.3262 196.965 65.1094 194.752 68.0391C192.571 70.9362 189.039 74.8262 184.156 79.709L174.977 90.3047H202.955V103ZM280.621 73.9473C280.621 83.5501 278.456 90.9557 274.127 96.1641C269.83 101.372 263.759 103.977 255.914 103.977C248.004 103.977 241.884 101.356 237.555 96.1152C233.225 90.8743 231.061 83.485 231.061 73.9473V60.959C231.061 51.3561 233.209 43.9505 237.506 38.7422C241.835 33.5339 247.939 30.9297 255.816 30.9297C263.694 30.9297 269.798 33.5501 274.127 38.791C278.456 44.0319 280.621 51.4375 280.621 61.0078V73.9473ZM264.166 58.8594C264.166 53.7487 263.499 49.9401 262.164 47.4336C260.829 44.8945 258.714 43.625 255.816 43.625C252.984 43.625 250.917 44.7969 249.615 47.1406C248.346 49.4844 247.662 53.0326 247.564 57.7852V75.9492C247.564 81.2552 248.232 85.1452 249.566 87.6191C250.901 90.0605 253.017 91.2812 255.914 91.2812C258.714 91.2812 260.781 90.0931 262.115 87.7168C263.45 85.3079 264.133 81.5482 264.166 76.4375V58.8594ZM358.775 103H309.166V92.2578L332.018 68.2344C337.649 61.8216 340.465 56.7272 340.465 52.9512C340.465 49.8913 339.798 47.5638 338.463 45.9688C337.128 44.3737 335.191 43.5762 332.652 43.5762C330.146 43.5762 328.111 44.6504 326.549 46.7988C324.986 48.9147 324.205 51.5677 324.205 54.7578H307.701C307.701 50.3958 308.792 46.3757 310.973 42.6973C313.154 38.9863 316.181 36.0892 320.055 34.0059C323.928 31.9225 328.258 30.8809 333.043 30.8809C340.725 30.8809 346.633 32.6549 350.768 36.2031C354.934 39.7513 357.018 44.8457 357.018 51.4863C357.018 54.2858 356.497 57.0202 355.455 59.6895C354.413 62.3262 352.786 65.1094 350.572 68.0391C348.391 70.9362 344.859 74.8262 339.977 79.709L330.797 90.3047H358.775V103ZM423.551 103H407.047V50.4609L390.836 55.1973V42.6973L422.037 31.9062H423.551V103Z" fill="white"/>
<defs>
<filter id="filter0_b" x="-4" y="-4" width="602.139" height="602.139" filterUnits="userSpaceOnUse" color-interpolation-filters="sRGB">
<feFlood flood-opacity="0" result="BackgroundImageFix"/>
<feGaussianBlur in="BackgroundImage" stdDeviation="2"/>
<feComposite in2="SourceAlpha" operator="in" result="effect1_backgroundBlur"/>
<feBlend mode="normal" in="SourceGraphic" in2="effect1_backgroundBlur" result="shape"/>
</filter>
<filter id="filter1_i" x="139.12" y="182.89" width="303.42" height="325.55" filterUnits="userSpaceOnUse" color-interpolation-filters="sRGB">
<feFlood flood-opacity="0" result="BackgroundImageFix"/>
<feBlend mode="normal" in="SourceGraphic" in2="BackgroundImageFix" result="shape"/>
<feColorMatrix in="SourceAlpha" type="matrix" values="0 0 0 0 0 0 0 0 0 0 0 0 0 0 0 0 0 0 127 0" result="hardAlpha"/>
<feOffset dy="4"/>
<feGaussianBlur stdDeviation="2"/>
<feComposite in2="hardAlpha" operator="arithmetic" k2="-1" k3="1"/>
<feColorMatrix type="matrix" values="0 0 0 0 0 0 0 0 0 0 0 0 0 0 0 0 0 0 0.25 0"/>
<feBlend mode="normal" in2="shape" result="effect1_innerShadow"/>
</filter>
<linearGradient id="paint0_linear" x1="206" y1="-1" x2="206" y2="594" gradientUnits="userSpaceOnUse">
<stop stop-color="#FF5454"/>
<stop offset="0.216364" stop-color="#FF5454"/>
<stop offset="0.216464" stop-color="#FF4E4E"/>
<stop offset="0.216564" stop-color="#BD1414"/>
<stop offset="0.216664" stop-color="#D01E1E"/>
<stop offset="0.216764" stop-color="#C4C4C4"/>
<stop offset="0.216864" stop-color="#FAFAFA"/>
<stop offset="0.990167" stop-color="#E5E5E5"/>
</linearGradient>
</defs>
</svg>
